Results
version=1
nRows=14
nColumns=24
inDegrees=yes
endheader
time	pelvis_tilt	pelvis_list	pelvis_rotation	pelvis_tx	pelvis_ty	pelvis_tz	hip_flexion_r	hip_adduction_r	hip_rotation_r	knee_angle_r	ankle_angle_r	subtalar_angle_r	mtp_angle_r	hip_flexion_l	hip_adduction_l	hip_rotation_l	knee_angle_l	ankle_angle_l	subtalar_angle_l	mtp_angle_l	lumbar_extension	lumbar_bending	lumbar_rotation
      0.68700000	     -6.86012379	      7.94597307	     12.08449876	     -0.08254686	      0.96179074	      0.29319112	     39.29442922	    -15.65761951	    -10.60242008	     -5.63880424	      9.34313350	     -5.40468674	     -9.80263563	    -14.62620141	      7.76653132	      6.09821033	     -6.00034156	      9.87831906	     -2.81826137	      9.15915434	     -7.07034050	     -7.00973110	     -7.94200651
      0.69116667	     -6.86272818	      7.90963291	     12.18682239	     -0.07625191	      0.96101031	      0.29352280	     39.20145560	    -15.63440031	    -10.45317970	     -6.32498778	      9.41067661	     -5.47517086	     -9.78375187	    -14.85962344	      7.58675375	      6.10415691	     -6.23607496	      9.68536037	     -2.72011162	      9.18271641	     -7.03402325	     -6.89020040	     -7.96855019
      0.69533333	     -6.78395229	      7.86009399	     12.24668584	     -0.06988710	      0.96037955	      0.29398182	     38.99853911	    -15.55258321	    -10.31860434	     -6.96322709	      9.43744163	     -5.49398307	     -9.73578965	    -15.17353415	      7.37474837	      6.05772278	     -6.46520115	      9.47437224	     -2.55471571	      9.25771427	     -7.11255764	     -6.74497594	     -8.07300276
      0.69950000	     -6.53428757	      7.71265737	     12.37101863	     -0.06342434	      0.96018380	      0.29428966	     38.49594293	    -15.40008433	    -10.41039258	     -7.43925663	      9.31210901	     -5.60634878	     -9.55723180	    -15.62605848	      7.00628412	      6.00316376	     -6.73052265	      9.26987386	     -2.38191662	      9.57601630	     -7.33574641	     -6.43373086	     -8.13845473
      0.70366667	     -6.46828949	      7.62506732	     12.42871709	     -0.05688048	      0.95961592	      0.29474586	     38.24714501	    -15.27140144	    -10.36494547	     -7.96644360	      9.19658422	     -5.64977000	     -9.44985383	    -15.90411604	      6.76091809	      5.93055503	     -6.98940609	      8.97739409	     -2.31575433	      9.77240328	     -7.34330024	     -6.24507301	     -8.29567175
      0.70783333	     -6.49097321	      7.58041369	     12.54236288	     -0.05041264	      0.95897077	      0.29515738	     38.07941973	    -15.22015193	    -10.32720341	     -8.46923839	      9.03498078	     -5.70794511	     -9.42668078	    -16.05290316	      6.57109610	      5.92097836	     -7.33327562	      8.65049977	     -2.25222680	      9.81681800	     -7.28509697	     -6.14324380	     -8.29107850
      0.71200000	     -6.16905536	      7.37458547	     12.62418005	     -0.04377836	      0.95901857	      0.29562645	     37.41965697	    -14.94323648	    -10.45296392	     -8.73412866	      8.67140201	     -5.95117374	     -9.18288361	    -16.53351165	      6.12530732	      5.79595136	     -7.64339353	      8.34805558	     -2.04757742	     10.27917352	     -7.57962936	     -5.74022461	     -8.41580810
      0.71616667	     -6.17439285	      7.23727721	     12.69040582	     -0.03708256	      0.95850149	      0.29606686	     37.17927285	    -14.76388740	    -10.48352649	     -9.07124338	      8.28284492	     -6.12101428	     -9.07372887	    -16.67657314	      5.85274647	      5.73462119	     -7.99200389	      7.95738574	     -2.10426015	     10.48861873	     -7.47789464	     -5.51294000	     -8.44601009
      0.72033333	     -5.89575293	      7.06401729	     12.71953755	     -0.03042430	      0.95853890	      0.29670070	     36.57408329	    -14.47044743	    -10.54490447	     -9.25039920	      7.75725790	     -6.41899904	     -8.71751946	    -17.06959419	      5.46264690	      5.52586088	     -8.37906998	      7.56002712	     -1.87291753	     11.15423387	     -7.73557558	     -5.18544179	     -8.50939836
      0.72450000	     -5.94150947	      6.91254484	     12.77513234	     -0.02368624	      0.95807978	      0.29715952	     36.36112743	    -14.26908882	    -10.58830563	     -9.48112914	      7.17349542	     -6.67329077	     -8.59983125	    -17.12102709	      5.19708707	      5.46513579	     -8.80500350	      7.08687915	     -2.01209637	     11.38034969	     -7.58011837	     -4.95323113	     -8.49271401
      0.72866667	     -5.65299066	      6.70408118	     12.71555626	     -0.01693346	      0.95820910	      0.29799096	     35.75237657	    -13.87009301	    -10.58883810	     -9.54439939	      6.37689351	     -7.15543561	     -8.17265062	    -17.48142868	      4.79117847	      5.13991693	     -9.24503123	      6.62605512	     -1.78035091	     12.16420488	     -7.82749603	     -4.59498567	     -8.49378241
      0.73283333	     -5.71520498	      6.52926102	     12.74294353	     -0.01014939	      0.95785622	      0.29846066	     35.55737624	    -13.63312389	    -10.64501483	     -9.68720003	      5.59087818	     -7.47900308	     -8.04439621	    -17.46352580	      4.52534919	      5.05873257	     -9.74771032	      6.05618724	     -2.00020300	     12.40993830	     -7.64151305	     -4.33916031	     -8.43435456
      0.73700000	     -5.50323109	      6.29290092	     12.63921305	     -0.00331104	      0.95797298	      0.29931004	     35.05330965	    -13.19781474	    -10.63880867	     -9.68783898	      4.53229776	     -8.05814342	     -3.60513967	    -17.69641555	      4.13587073	      4.69561924	    -10.24999350	      5.42082482	     -1.99441606	     20.55588616	     -7.77720268	     -3.97077792	     -8.33897058
      0.74116667	     -5.41154155	      6.09170691	     12.51962167	      0.00347773	      0.95793819	      0.30017179	     34.72576218	    -12.80584753	    -10.54859539	     -9.74161025	      3.45745343	     -8.67766054	     -3.60524256	    -17.77745367	      3.83181892	      4.38417448	    -10.83216519	      4.82570919	     -2.01972376	     20.64684450	     -7.78627872	     -3.67034855	     -8.24802921
